# xmcd
#
# Track frame offsets: 
#        151
#        18946
#        33663
#        51092
#        68395
#        84366
#        101123
#        118988
#        138979
#        152208
#        168965
#        186374
#        204177
#        221750
#
# Disc length: 3192 seconds
#
# Revision: 0
# Processed by: cddbd v1.5.2PL0 Copyright (c) Steve Scherf et al.
# Submitted via: ExactAudioCopy v0.95b4
#
DISCID=bf0c760e
DTITLE=เฉลิมพล วิเชียร ซำเหมา - รวมฮิต สามหนุ่มสามมุม
DYEAR=2006
DGENRE=Country
TTITLE0=ปิดตำนานบักจอบหลอย
TTITLE1=มักสาวเอวยาว
TTITLE2=น้ำตาบักยาดอง
TTITLE3=บอกใจให้ถอย
TTITLE4=แฮงฮักแฮงซัง
TTITLE5=15 ค่ำที่หนองคาย
TTITLE6=กัณฑเทศน์โศก
TTITLE7=เต้ยโศก
TTITLE8=อีเฒ่าสายเดี่ยว
TTITLE9=หมายไว้ได้บ่
TTITLE10=กาเม
TTITLE11=ได้ฟังแต่ข่าว
TTITLE12=ภาพแห่งความหลัง
TTITLE13=รู้กันสองคน
EXTD=
EXTT0=
EXTT1=
EXTT2=
EXTT3=
EXTT4=
EXTT5=
EXTT6=
EXTT7=
EXTT8=
EXTT9=
EXTT10=
EXTT11=
EXTT12=
EXTT13=
PLAYORDER=
